<svg width="2111" height="781" viewBox="0 0 2111 781" fill="none" xmlns="http://www.w3.org/2000/svg">
<path d="M1792.95 347.772C1776.86 347.668 1760.83 345.662 1745.2 341.796C1737.59 339.762 1730.48 337.538 1723.7 335.44C1697.76 326.35 1676.83 316.37 1653.93 315.099C1637 314.336 1619.11 318.786 1597.42 332.834C1573.83 348.153 1553.03 367.54 1527.66 379.491C1489.6 397.543 1445.21 396.145 1405.63 383.304C1397.7 380.648 1389.99 377.397 1382.55 373.579C1360.54 362.646 1343.22 348.153 1322.3 335.44C1318.3 332.961 1314.18 330.482 1309.61 328.193C1284.24 314.4 1255.89 320.121 1228.87 322.727C1201.86 325.333 1174.84 323.363 1147.76 327.24C1141.2 328.208 1134.59 328.802 1127.97 329.02C1105.44 330.342 1083 325.205 1063.28 314.209C1061.3 313.122 1059.39 311.912 1057.57 310.586C1050.63 306.182 1044.7 300.342 1040.2 293.458C1035.69 286.573 1032.71 278.803 1031.44 270.667C1027.19 231.193 1054.33 204.114 1088.2 189.558C1120.74 175.574 1172.74 186.888 1192.72 157.775C1200.46 146.588 1205.41 133.621 1213.97 122.878C1232.17 99.4861 1262.11 88.2351 1290.71 84.739L1295.47 84.167C1320.3 81.6728 1345.36 82.8076 1369.86 87.5359C1378.13 89.088 1385.97 92.4286 1392.82 97.3249C1431.19 129.108 1467.41 112.962 1498.86 79.0182C1514.43 62.2535 1533.99 49.7345 1555.72 42.6397C1577.44 35.545 1600.61 34.1078 1623.04 38.4636C1632.66 40.0814 1642.11 42.5924 1651.27 45.9643C1664.77 50.7006 1677.35 57.7557 1688.43 66.8137C1693.58 71.0975 1698.25 75.9127 1702.39 81.1794C1728.39 114.233 1718.56 138.897 1766.89 151.991C1794.6 159.428 1830.31 162.924 1861.26 173.412C1885.93 181.739 1907.3 194.58 1918.34 217.463C1921.28 223.511 1923.42 229.924 1924.68 236.533C1941.68 322.727 1861.89 349.615 1792.95 347.772Z" fill="#0A96FA"/>
<path d="M2019.74 212.214C2008.78 212.144 1997.87 210.779 1987.23 208.147C1982.05 206.763 1977.21 205.248 1972.59 203.82C1954.93 197.633 1940.68 190.84 1925.09 189.975C1913.57 189.456 1901.39 192.484 1886.62 202.046C1870.56 212.474 1856.4 225.67 1839.13 233.804C1813.22 246.092 1782.99 245.14 1756.05 236.401C1750.65 234.592 1745.4 232.38 1740.33 229.781C1725.35 222.339 1713.56 212.474 1699.31 203.82C1696.59 202.133 1693.79 200.446 1690.68 198.888C1673.41 189.499 1654.11 193.393 1635.71 195.167C1617.32 196.941 1598.93 195.6 1580.49 198.239C1576.02 198.898 1571.53 199.303 1567.02 199.45C1551.68 200.35 1536.4 196.854 1522.97 189.369C1521.63 188.629 1520.33 187.806 1519.09 186.903C1514.36 183.906 1510.33 179.931 1507.26 175.244C1504.19 170.558 1502.16 165.269 1501.3 159.731C1498.41 132.863 1516.89 114.431 1539.94 104.523C1562.09 95.0039 1597.5 102.705 1611.1 82.8891C1616.37 75.2741 1619.74 66.4476 1625.57 59.1355C1637.96 43.2133 1658.34 35.555 1677.81 33.1753L1681.05 32.7859C1697.95 31.0882 1715.02 31.8607 1731.7 35.0791C1737.33 36.1356 1742.66 38.4094 1747.33 41.7422C1773.45 63.3757 1798.11 52.3859 1819.52 29.2813C1830.12 17.87 1843.44 9.34869 1858.23 4.51949C1873.02 -0.309719 1888.79 -1.28795 1904.07 1.67692C1910.62 2.77808 1917.05 4.48728 1923.28 6.78243C1932.47 10.0063 1941.03 14.8085 1948.58 20.974C1952.08 23.8899 1955.27 27.1675 1958.08 30.7524C1975.79 53.2512 1969.09 70.0388 2001.99 78.9518C2020.86 84.0141 2045.17 86.3938 2066.24 93.5328C2083.04 99.2008 2097.59 107.941 2105.1 123.517C2107.11 127.634 2108.56 131.998 2109.42 136.497C2120.99 195.167 2066.68 213.469 2019.74 212.214Z" fill="#84CBFF"/>
<path d="M1387.74 750.214C1376.78 750.144 1365.87 748.779 1355.23 746.147C1350.05 744.763 1345.21 743.248 1340.59 741.82C1322.93 735.633 1308.68 728.84 1293.09 727.975C1281.57 727.456 1269.39 730.484 1254.62 740.046C1238.56 750.474 1224.4 763.67 1207.13 771.804C1181.22 784.092 1150.99 783.14 1124.05 774.401C1118.65 772.592 1113.4 770.38 1108.33 767.781C1093.35 760.339 1081.56 750.474 1067.31 741.82C1064.59 740.133 1061.79 738.446 1058.68 736.888C1041.41 727.499 1022.11 731.393 1003.71 733.167C985.319 734.941 966.925 733.6 948.488 736.239C944.024 736.898 939.526 737.303 935.016 737.45C919.678 738.35 904.401 734.854 890.975 727.369C889.629 726.629 888.331 725.806 887.089 724.903C882.362 721.906 878.33 717.931 875.262 713.244C872.194 708.558 870.161 703.269 869.299 697.731C866.406 670.863 884.886 652.431 907.944 642.523C930.094 633.004 965.5 640.705 979.101 620.889C984.369 613.274 987.737 604.448 993.566 597.136C1005.96 581.213 1026.34 573.555 1045.81 571.175L1049.05 570.786C1065.95 569.088 1083.02 569.861 1099.7 573.079C1105.33 574.136 1110.66 576.409 1115.33 579.742C1141.45 601.376 1166.11 590.386 1187.52 567.281C1198.12 555.87 1211.44 547.349 1226.23 542.519C1241.02 537.69 1256.79 536.712 1272.07 539.677C1278.62 540.778 1285.05 542.487 1291.28 544.782C1300.47 548.006 1309.03 552.808 1316.58 558.974C1320.08 561.89 1323.27 565.167 1326.08 568.752C1343.79 591.251 1337.09 608.039 1369.99 616.952C1388.86 622.014 1413.17 624.394 1434.24 631.533C1451.04 637.201 1465.59 645.941 1473.1 661.517C1475.11 665.634 1476.56 669.998 1477.42 674.497C1488.99 733.167 1434.68 751.469 1387.74 750.214Z" fill="#72A0E4"/>
<path d="M518.741 587.214C507.781 587.144 496.868 585.779 486.228 583.147C481.046 581.763 476.21 580.248 471.59 578.82C453.93 572.633 439.681 565.84 424.094 564.975C412.565 564.456 400.389 567.484 385.622 577.046C369.56 587.474 355.397 600.67 338.126 608.804C312.219 621.092 281.994 620.14 255.051 611.401C249.654 609.592 244.4 607.38 239.334 604.781C224.351 597.339 212.564 587.474 198.315 578.82C195.594 577.133 192.788 575.446 189.679 573.888C172.408 564.499 153.107 568.393 134.713 570.167C116.319 571.941 97.9252 570.6 79.4881 573.239C75.024 573.898 70.5261 574.303 66.0163 574.45C50.6781 575.35 35.4015 571.854 21.9746 564.369C20.6291 563.629 19.3312 562.806 18.0885 561.903C13.3625 558.906 9.33029 554.931 6.26221 550.244C3.19413 545.558 1.16103 540.269 0.299105 534.731C-2.59384 507.863 15.8864 489.431 38.9436 479.523C61.0941 470.004 96.5003 477.705 110.101 457.889C115.369 450.274 118.737 441.448 124.566 434.136C136.958 418.213 157.338 410.555 176.812 408.175L180.05 407.786C196.955 406.088 214.016 406.861 230.698 410.079C236.33 411.136 241.664 413.409 246.329 416.742C272.452 438.376 297.107 427.386 318.523 404.281C329.12 392.87 342.441 384.349 357.231 379.519C372.021 374.69 387.795 373.712 403.066 376.677C409.615 377.778 416.048 379.487 422.28 381.782C431.472 385.006 440.034 389.808 447.583 395.974C451.084 398.89 454.267 402.167 457.082 405.752C474.785 428.251 468.093 445.039 500.995 453.952C519.863 459.014 544.173 461.394 565.244 468.533C582.04 474.201 596.591 482.941 604.104 498.517C606.109 502.634 607.561 506.998 608.422 511.497C619.994 570.167 565.676 588.469 518.741 587.214Z" fill="#B4A0D3"/>
</svg>
