<svg width="524" height="88" viewBox="0 0 524 88" fill="none" xmlns="http://www.w3.org/2000/svg">
<rect x="2" y="2" width="520" height="84" rx="18" fill="white" fill-opacity="0.2" stroke="white" stroke-width="4"/>
<path d="M278.892 22.0297C278.651 22.011 278.416 21.9463 278.199 21.8391C273.232 19.2267 267.694 17.884 262.08 17.931C256.463 17.8951 250.927 19.2719 245.984 21.9344C245.816 22.0267 245.632 22.0852 245.441 22.1064C245.251 22.1276 245.058 22.1112 244.874 22.0581C244.69 22.005 244.518 21.9162 244.369 21.7969C244.219 21.6775 244.094 21.5299 244.002 21.3625C243.909 21.1951 243.851 21.0111 243.829 20.8211C243.808 20.6311 243.825 20.4388 243.878 20.2551C243.931 20.0715 244.02 19.9001 244.14 19.7507C244.259 19.6014 244.407 19.477 244.575 19.3846C249.963 16.5181 255.973 15.0127 262.08 15C268.175 15.0043 274.18 16.4757 279.584 19.2893C279.923 19.4758 280.175 19.7872 280.287 20.1568C280.398 20.5265 280.361 20.9251 280.181 21.2672C280.07 21.5104 279.887 21.7138 279.656 21.8501C279.426 21.9864 279.159 22.0491 278.892 22.0297ZM237.411 37.1139C237.121 37.1213 236.84 37.0192 236.622 36.8279C236.318 36.6155 236.106 36.2947 236.03 35.9314C235.955 35.5681 236.021 35.1898 236.216 34.8739C239.021 30.9383 242.742 27.7409 247.058 25.5565C251.715 23.2637 256.839 22.071 262.032 22.071C267.225 22.071 272.348 23.2637 277.005 25.5565C281.339 27.7156 285.065 30.9178 287.847 34.8739C288.006 35.1883 288.042 35.55 287.95 35.8896C287.858 36.2293 287.644 36.5232 287.348 36.715C287.052 36.9068 286.696 36.983 286.348 36.9291C285.999 36.8752 285.683 36.695 285.459 36.4228C282.928 32.8401 279.537 29.9479 275.596 28.011C271.358 25.9294 266.696 24.8469 261.972 24.8469C257.248 24.8469 252.587 25.9294 248.348 28.011C244.434 29.9785 241.058 32.8652 238.509 36.4228C238.412 36.6315 238.257 36.8078 238.062 36.9304C237.867 37.053 237.641 37.1168 237.411 37.1139ZM255.512 71.5715C255.33 71.5905 255.147 71.5658 254.976 71.4995C254.806 71.4332 254.654 71.3271 254.533 71.1903C252.186 68.9991 250.203 66.4492 248.658 63.6363C246.588 59.8274 245.528 55.5538 245.578 51.221C245.746 46.9986 247.57 43.0112 250.657 40.1183C253.743 37.2253 257.846 35.6585 262.08 35.7556C266.289 35.6397 270.374 37.1869 273.447 40.0607C276.519 42.9346 278.33 46.9026 278.486 51.1019C278.44 51.4644 278.263 51.7978 277.988 52.0394C277.713 52.2811 277.36 52.4144 276.993 52.4144C276.627 52.4144 276.273 52.2811 275.999 52.0394C275.724 51.7978 275.547 51.4644 275.501 51.1019C275.442 49.4054 275.048 47.7373 274.341 46.1936C273.634 44.6498 272.627 43.2609 271.38 42.1069C270.132 40.9529 268.668 40.0566 267.072 39.4696C265.476 38.8826 263.779 38.6165 262.08 38.6867C260.367 38.6229 258.659 38.8967 257.052 39.4923C255.446 40.0879 253.973 40.9937 252.717 42.1578C251.462 43.322 250.449 44.7216 249.736 46.2768C249.023 47.8319 248.625 49.512 248.563 51.221C248.471 55.0463 249.394 58.8278 251.238 62.1827C252.622 64.7814 254.439 67.1264 256.611 69.1171C256.752 69.2507 256.864 69.4114 256.941 69.5896C257.017 69.7678 257.057 69.9597 257.057 70.1537C257.057 70.3476 257.017 70.5395 256.941 70.7177C256.864 70.8959 256.752 71.0567 256.611 71.1903C256.286 71.4146 255.906 71.5464 255.512 71.5715ZM276.408 66.2814C273.238 66.3696 270.116 65.4972 267.453 63.7792C265.365 62.4196 263.647 60.5658 262.451 58.383C261.255 56.2003 260.619 53.7563 260.599 51.2687C260.596 51.0738 260.632 50.8802 260.705 50.6995C260.778 50.5188 260.887 50.3546 261.025 50.2168C261.164 50.079 261.328 49.9703 261.509 49.8972C261.69 49.824 261.884 49.788 262.08 49.7913C262.279 49.7775 262.478 49.806 262.666 49.8751C262.853 49.9441 263.023 50.0521 263.165 50.1917C263.308 50.3314 263.419 50.4997 263.491 50.6854C263.563 50.871 263.595 51.0698 263.584 51.2687C263.608 53.3001 264.138 55.2936 265.126 57.0699C266.114 58.8461 267.529 60.3493 269.244 61.444C271.436 62.8443 273.997 63.558 276.599 63.4933C277.6 63.4742 278.598 63.3785 279.584 63.2073C279.961 63.141 280.349 63.2267 280.663 63.4457C280.976 63.6647 281.19 63.9989 281.256 64.375C281.323 64.751 281.237 65.138 281.017 65.4508C280.798 65.7637 280.463 65.9767 280.086 66.0431C278.199 66.2337 276.79 66.329 276.408 66.329V66.2814ZM270.533 72.1673C270.402 72.2109 270.259 72.2109 270.128 72.1673C266.049 71.1599 262.309 69.0967 259.286 66.186C257.303 64.2478 255.729 61.9342 254.654 59.3808C253.58 56.8274 253.027 54.0857 253.029 51.3164C253.194 49.0591 254.209 46.9479 255.871 45.4069C257.532 43.866 259.716 43.0094 261.984 43.0094C264.252 43.0094 266.436 43.866 268.098 45.4069C269.759 46.9479 270.774 49.0591 270.939 51.3164C271.074 52.8289 271.771 54.2364 272.894 55.2615C274.017 56.2867 275.483 56.8553 277.005 56.8553C278.527 56.8553 279.994 56.2867 281.116 55.2615C282.239 54.2364 282.936 52.8289 283.071 51.3164C283.071 40.5454 273.519 31.8237 262.08 31.8237C258.132 31.7796 254.25 32.8387 250.874 34.8811C247.498 36.9236 244.761 39.8679 242.975 43.3811C241.817 45.8985 241.238 48.6422 241.279 51.4117C241.269 54.9331 241.951 58.4223 243.285 61.6822C243.355 61.8574 243.389 62.0446 243.386 62.233C243.383 62.4214 243.342 62.6073 243.267 62.78C243.191 62.9528 243.082 63.1089 242.946 63.2395C242.81 63.3701 242.649 63.4725 242.473 63.5409C242.118 63.6771 241.723 63.6713 241.372 63.5249C241.021 63.3784 240.74 63.1026 240.587 62.7546C239.221 59.1607 238.518 55.3504 238.509 51.507C238.463 48.3307 239.141 45.1855 240.491 42.3088C242.541 38.3174 245.664 34.9747 249.511 32.6555C253.358 30.3363 257.776 29.1323 262.271 29.1786C275.501 29.1786 286.152 39.1633 286.152 51.507C285.986 53.7643 284.971 55.8755 283.31 57.4164C281.649 58.9574 279.464 59.8139 277.196 59.8139C274.928 59.8139 272.744 58.9574 271.083 57.4164C269.421 55.8755 268.406 53.7643 268.241 51.507C268.21 50.7432 268.029 49.993 267.707 49.2992C267.386 48.6055 266.93 47.9818 266.367 47.4639C265.803 46.946 265.143 46.544 264.424 46.2809C263.705 46.0179 262.94 45.8989 262.175 45.9308C261.408 45.8925 260.641 46.007 259.919 46.2677C259.197 46.5283 258.535 46.93 257.97 47.4491C257.405 47.9682 256.95 48.5945 256.63 49.2912C256.311 49.9879 256.134 50.7412 256.109 51.507C256.092 53.918 256.568 56.3071 257.508 58.528C258.448 60.7489 259.833 62.7548 261.578 64.4227C264.205 67.0411 267.514 68.8736 271.131 69.7128C271.314 69.7591 271.486 69.8425 271.636 69.9577C271.786 70.073 271.911 70.2177 272.003 70.383C272.094 70.5482 272.151 70.7305 272.17 70.9185C272.188 71.1066 272.168 71.2964 272.11 71.4762C271.689 71.8941 271.127 72.1405 270.533 72.1673Z" fill="white"/>
</svg>
