<svg width="671" height="267" viewBox="0 0 671 267" fill="none" xmlns="http://www.w3.org/2000/svg">
<path d="M319.933 171.778L319.421 150.914H324.285C328.893 150.914 333.117 150.487 336.957 149.634C340.882 148.78 343.997 147.116 346.301 144.642C348.69 142.167 349.885 138.498 349.885 133.634C349.885 128.94 348.434 125.271 345.533 122.626C342.632 119.895 338.834 118.53 334.141 118.53C329.277 118.53 325.437 119.852 322.621 122.498C319.805 125.143 318.397 128.727 318.397 133.25H305.597C305.512 128.13 306.621 123.607 308.925 119.682C311.314 115.756 314.642 112.684 318.909 110.466C323.261 108.247 328.338 107.138 334.141 107.138C339.773 107.138 344.765 108.204 349.117 110.338C353.469 112.471 356.84 115.543 359.229 119.554C361.704 123.479 362.941 128.215 362.941 133.762C362.941 139.82 361.618 144.812 358.973 148.738C356.328 152.578 352.701 155.436 348.093 157.314C343.485 159.106 338.194 160.002 332.221 160.002L331.837 171.778H319.933ZM325.949 199.042C323.304 199.042 321.17 198.231 319.549 196.61C317.928 194.903 317.117 192.898 317.117 190.594C317.117 188.204 317.928 186.199 319.549 184.578C321.17 182.871 323.304 182.018 325.949 182.018C328.424 182.018 330.472 182.871 332.093 184.578C333.8 186.199 334.653 188.204 334.653 190.594C334.653 192.898 333.8 194.903 332.093 196.61C330.472 198.231 328.424 199.042 325.949 199.042Z" fill="white"/>
<path d="M569.985 232.727C557.943 232.649 545.952 231.152 534.26 228.266C528.567 226.748 523.253 225.087 518.177 223.521C498.772 216.736 483.116 209.287 465.989 208.338C453.321 207.768 439.942 211.09 423.716 221.576C406.067 233.011 390.506 247.483 371.528 256.404C343.062 269.879 309.851 268.835 280.246 259.251C274.316 257.268 268.543 254.841 262.977 251.991C246.514 243.83 233.562 233.011 217.905 223.521C214.916 221.671 211.833 219.82 208.417 218.112C189.439 207.816 168.232 212.086 148.021 214.032C127.81 215.977 107.599 214.506 87.3404 217.401C82.4354 218.123 77.4931 218.567 72.5378 218.729C55.6844 219.716 38.8986 215.881 24.1453 207.673C22.6669 206.862 21.2409 205.959 19.8754 204.969C14.6825 201.682 10.252 197.322 6.88083 192.183C3.50967 187.044 1.27573 181.244 0.328652 175.171C-2.85008 145.705 17.4557 125.492 42.7907 114.626C67.1293 104.187 106.033 112.633 120.978 90.9011C126.766 82.5501 130.467 72.8704 136.872 64.8515C150.488 47.3902 172.881 38.9917 194.278 36.382L197.837 35.955C216.411 34.0932 235.157 34.9403 253.488 38.4698C259.676 39.6284 265.537 42.122 270.663 45.7769C299.366 69.5015 326.457 57.4494 349.989 32.1116C361.632 19.5973 376.269 10.2523 392.52 4.95633C408.772 -0.339656 426.103 -1.41244 442.884 1.83901C450.079 3.04661 457.147 4.92102 463.996 7.43801C474.096 10.9735 483.504 16.2398 491.798 23.0013C495.644 26.1991 499.143 29.7934 502.236 33.7248C521.687 58.3984 514.334 76.8087 550.486 86.5832C571.219 92.1348 597.93 94.7445 621.082 102.574C639.538 108.789 655.526 118.374 663.781 135.456C665.984 139.971 667.579 144.757 668.526 149.691C681.241 214.032 621.556 234.103 569.985 232.727Z" fill="white" fill-opacity="0.2"/>
<path fill-rule="evenodd" clip-rule="evenodd" d="M572.515 232.777C571.669 232.766 570.826 232.749 569.985 232.727C569.233 232.722 568.481 232.711 567.73 232.696L567.836 227.697C568.563 227.712 569.29 227.722 570.017 227.727L570.068 227.727L570.118 227.728C570.937 227.75 571.757 227.767 572.579 227.777L572.515 232.777ZM563.222 232.534L563.475 227.54C562.022 227.467 560.571 227.372 559.121 227.255L558.721 232.239C560.22 232.36 561.72 232.458 563.222 232.534ZM554.231 231.813L554.777 226.843C553.331 226.684 551.888 226.503 550.448 226.302L549.755 231.254C551.244 231.462 552.736 231.648 554.231 231.813ZM545.298 230.564L546.136 225.634C544.702 225.391 543.272 225.126 541.845 224.84L540.863 229.742C542.337 230.038 543.816 230.312 545.298 230.564ZM536.453 228.791L537.58 223.919C536.887 223.759 536.195 223.594 535.504 223.423C534.855 223.25 534.21 223.075 533.569 222.898L532.237 227.717C532.906 227.902 533.58 228.085 534.26 228.266C534.99 228.447 535.721 228.621 536.453 228.791ZM528.205 226.568L529.609 221.77C528.27 221.378 526.949 220.982 525.64 220.585L524.188 225.369C525.508 225.77 526.846 226.171 528.205 226.568ZM520.18 224.14L521.654 219.362L520.817 219.104C520.457 218.992 520.097 218.881 519.74 218.771C518.917 218.483 518.1 218.194 517.288 217.903L515.603 222.611C516.454 222.915 517.311 223.219 518.177 223.521C518.568 223.642 518.961 223.763 519.355 223.885C519.629 223.97 519.904 224.055 520.18 224.14ZM510.477 220.743L512.211 216.053C510.539 215.435 508.891 214.819 507.255 214.207L507.115 214.155L505.364 218.838C505.411 218.856 505.457 218.873 505.504 218.891C507.139 219.502 508.795 220.121 510.477 220.743ZM500.251 216.936L501.98 212.245C500.239 211.602 498.507 210.973 496.785 210.365L495.121 215.08C496.814 215.677 498.522 216.299 500.251 216.936ZM489.956 213.322L491.505 208.567C489.71 207.983 487.915 207.428 486.116 206.914L484.741 211.721C486.473 212.216 488.209 212.752 489.956 213.322ZM479.462 210.345L480.599 205.476C478.73 205.039 476.849 204.655 474.951 204.333L474.116 209.263C475.903 209.566 477.683 209.929 479.462 210.345ZM468.709 208.543L469.184 203.566C468.216 203.474 467.244 203.4 466.265 203.345L466.239 203.344L466.213 203.343C465.404 203.306 464.592 203.285 463.776 203.278L463.737 208.278C464.49 208.284 465.241 208.304 465.989 208.338C466.899 208.388 467.806 208.457 468.709 208.543ZM459.236 208.416L458.891 203.428C457.286 203.539 455.666 203.712 454.028 203.954L454.758 208.901C456.267 208.678 457.758 208.518 459.236 208.416ZM450.331 209.727L449.231 204.849C447.68 205.199 446.115 205.61 444.533 206.087L445.975 210.874C447.446 210.431 448.897 210.05 450.331 209.727ZM441.709 212.314L439.959 207.631C438.494 208.178 437.014 208.781 435.518 209.442L437.538 214.015C438.948 213.393 440.338 212.827 441.709 212.314ZM433.468 215.945L431.212 211.483C429.835 212.179 428.443 212.924 427.036 213.719L429.496 218.072C430.838 217.313 432.162 216.605 433.468 215.945ZM425.622 220.369L422.987 216.12C422.329 216.528 421.667 216.947 421.002 217.377L420.997 217.38C420.245 217.868 419.497 218.36 418.753 218.856L421.529 223.015C422.255 222.531 422.984 222.051 423.716 221.576C424.356 221.163 424.991 220.76 425.622 220.369ZM417.209 225.973L414.34 221.878C412.885 222.897 411.443 223.928 410.013 224.963L412.946 229.013C414.359 227.989 415.779 226.974 417.209 225.973ZM408.721 232.106L405.752 228.083C404.341 229.124 402.933 230.17 401.535 231.207L404.514 235.223C404.714 235.074 404.915 234.925 405.115 234.777C406.316 233.886 407.517 232.994 408.721 232.106ZM400.304 238.335L397.342 234.307C395.945 235.334 394.55 236.351 393.153 237.355L396.07 241.416C397.486 240.399 398.896 239.37 400.304 238.335ZM391.792 244.434L388.948 240.322C387.541 241.295 386.129 242.249 384.709 243.179L387.45 247.361C388.909 246.405 390.355 245.428 391.792 244.434ZM383.027 250.163L380.421 245.896C378.982 246.775 377.533 247.625 376.069 248.443L378.509 252.808C380.033 251.956 381.538 251.073 383.027 250.163ZM373.883 255.26L371.644 250.79C370.901 251.162 370.153 251.525 369.401 251.879L369.389 251.885C368.645 252.237 367.897 252.579 367.146 252.91L369.165 257.484C369.956 257.135 370.744 256.775 371.528 256.404C372.319 256.032 373.104 255.651 373.883 255.26ZM364.359 259.458L362.581 254.785C361.04 255.371 359.486 255.917 357.921 256.422L359.459 261.18C361.104 260.649 362.738 260.075 364.359 259.458ZM354.477 262.653L353.179 257.825C351.585 258.253 349.981 258.643 348.367 258.993L349.43 263.879C351.121 263.511 352.804 263.103 354.477 262.653ZM344.329 264.863L343.497 259.932C341.866 260.207 340.227 260.445 338.582 260.645L339.188 265.609C340.907 265.399 342.621 265.15 344.329 264.863ZM334.018 266.123L333.632 261.138C331.979 261.266 330.32 261.358 328.658 261.416L328.831 266.413C330.563 266.353 332.293 266.257 334.018 266.123ZM323.637 266.485L323.67 261.485C322.007 261.474 320.342 261.43 318.676 261.352L318.444 266.347C320.175 266.427 321.906 266.474 323.637 266.485ZM313.26 266.005L313.685 261.023C312.023 260.881 310.362 260.708 308.704 260.504L308.093 265.466C309.812 265.678 311.535 265.858 313.26 266.005ZM302.949 264.737L303.74 259.8C302.09 259.535 300.443 259.241 298.801 258.918L297.835 263.823C299.534 264.158 301.239 264.463 302.949 264.737ZM292.756 262.731L293.891 257.862C292.259 257.481 290.634 257.073 289.017 256.637L287.717 261.465C289.388 261.915 291.068 262.338 292.756 262.731ZM282.724 260.03L284.185 255.249C283.391 255.006 282.598 254.756 281.809 254.501C281.105 254.266 280.404 254.024 279.705 253.775L278.031 258.487C278.767 258.748 279.505 259.003 280.246 259.251C281.07 259.517 281.896 259.777 282.724 260.03ZM273.644 256.834L275.495 252.189C274.101 251.634 272.718 251.053 271.347 250.445L269.323 255.017C270.752 255.65 272.192 256.256 273.644 256.834ZM265.073 253.04L267.268 248.547C266.594 248.218 265.923 247.882 265.256 247.54L265.227 247.526L265.198 247.511C264.428 247.13 263.665 246.742 262.909 246.347L260.598 250.781C261.383 251.191 262.176 251.594 262.977 251.991C263.672 252.347 264.371 252.697 265.073 253.04ZM255.916 248.227L258.388 243.882C256.883 243.025 255.399 242.146 253.93 241.248L251.323 245.515C252.832 246.437 254.361 247.342 255.916 248.227ZM246.806 242.675L249.517 238.474C248.048 237.526 246.589 236.564 245.13 235.588L242.35 239.743C243.826 240.731 245.309 241.71 246.806 242.675ZM237.932 236.754L240.749 232.624C239.836 232 238.927 231.378 238.013 230.752C237.461 230.375 236.908 229.996 236.35 229.615L233.528 233.742C234.079 234.119 234.629 234.496 235.179 234.872C236.097 235.5 237.014 236.128 237.932 236.754ZM229.116 230.744L231.91 226.597C230.428 225.599 228.929 224.6 227.407 223.606L224.673 227.792C226.17 228.77 227.649 229.755 229.116 230.744ZM220.178 224.919L222.824 220.677C222.062 220.202 221.293 219.728 220.517 219.258C219.745 218.78 218.958 218.297 218.157 217.814L215.576 222.096C216.361 222.569 217.136 223.045 217.905 223.521C218.669 223.984 219.427 224.451 220.178 224.919ZM210.839 219.374L213.218 214.976C212.408 214.538 211.579 214.104 210.727 213.677C209.917 213.24 209.103 212.826 208.286 212.435L206.129 216.946C206.895 217.312 207.658 217.7 208.417 218.112C209.242 218.525 210.049 218.947 210.839 219.374ZM201.397 214.97L203.088 210.265C201.308 209.625 199.519 209.083 197.725 208.625L196.491 213.471C198.137 213.89 199.773 214.387 201.397 214.97ZM191.469 212.425L192.279 207.491C190.457 207.192 188.634 206.969 186.814 206.81L186.378 211.79C188.083 211.94 189.781 212.148 191.469 212.425ZM181.255 211.509L181.378 206.511C179.578 206.467 177.783 206.473 175.995 206.52L176.124 211.518C177.839 211.474 179.55 211.467 181.255 211.509ZM170.998 211.754L170.678 206.764C168.921 206.877 167.17 207.017 165.43 207.175L165.883 212.155C167.588 212 169.294 211.863 170.998 211.754ZM160.776 212.663L160.247 207.691C158.704 207.856 157.164 208.026 155.64 208.196L155.124 208.253L155.675 213.222C155.846 213.203 156.017 213.184 156.187 213.165C157.714 212.996 159.244 212.826 160.776 212.663ZM150.573 213.775L150.056 208.802C149.213 208.89 148.376 208.974 147.542 209.055C146.724 209.133 145.904 209.206 145.084 209.274L145.497 214.257C146.338 214.188 147.18 214.113 148.021 214.032C148.87 213.95 149.721 213.864 150.573 213.775ZM140.443 214.616L140.144 209.625C138.49 209.724 136.833 209.807 135.17 209.878L135.383 214.873C137.07 214.802 138.756 214.717 140.443 214.616ZM130.319 215.056L130.167 210.058C128.494 210.109 126.818 210.152 125.136 210.191L125.254 215.19C126.942 215.15 128.631 215.107 130.319 215.056ZM120.188 215.304L120.077 210.305C118.387 210.342 116.691 210.381 114.992 210.426L115.123 215.424C116.811 215.38 118.5 215.341 120.188 215.304ZM110.058 215.578L109.881 210.581C108.174 210.641 106.462 210.712 104.745 210.798L104.996 215.792C106.683 215.707 108.371 215.637 110.058 215.578ZM99.9377 216.094L99.5881 211.106C97.8678 211.226 96.1426 211.367 94.4133 211.532L94.8877 216.509C96.5713 216.349 98.2546 216.212 99.9377 216.094ZM89.8517 217.064L89.2278 212.103C88.364 212.211 87.4991 212.327 86.6331 212.451L86.6223 212.452L86.6114 212.454C85.4321 212.628 84.2506 212.785 83.0672 212.925L83.6553 217.89C84.8857 217.744 86.1142 217.581 87.3403 217.401C88.1775 217.281 89.0146 217.169 89.8517 217.064ZM76.2511 218.555L75.9457 213.564C74.7562 213.637 73.5656 213.693 72.3742 213.732L72.3098 213.734L72.2454 213.738C71.4546 213.784 70.664 213.819 69.8737 213.843L70.0247 218.841C70.862 218.815 71.6998 218.778 72.5378 218.729C73.7765 218.689 75.0144 218.63 76.2511 218.555ZM64.9946 218.85L65.1267 213.852C63.5427 213.81 61.9622 213.723 60.3869 213.592L59.9721 218.575C61.6413 218.714 63.3162 218.806 64.9946 218.85ZM54.973 218.016L55.6691 213.065C54.1012 212.844 52.5405 212.579 50.9888 212.271L50.0136 217.175C51.6578 217.502 53.3116 217.782 54.973 218.016ZM45.1098 216.054L46.361 211.214C44.8292 210.818 43.3084 210.378 41.8003 209.896L40.2773 214.658C41.8752 215.169 43.4868 215.635 45.1098 216.054ZM35.5314 212.991L37.3215 208.323C35.8455 207.757 34.3841 207.148 32.9391 206.498L30.8876 211.058C32.4188 211.747 33.9674 212.391 35.5314 212.991ZM26.3606 208.865L28.6668 204.429C27.9654 204.064 27.2684 203.689 26.5761 203.304L26.5636 203.297L26.5511 203.29C26.2273 203.113 25.9064 202.93 25.5885 202.742L23.0466 207.048C23.4094 207.262 23.7757 207.471 24.1453 207.673C24.8788 208.082 25.6173 208.479 26.3606 208.865ZM20.9106 205.695L23.717 201.557C23.4115 201.35 23.1091 201.137 22.81 200.921L22.6826 200.828L22.5496 200.744C21.9772 200.382 21.4152 200.005 20.8642 199.613L17.9689 203.69C18.5922 204.132 19.2278 204.559 19.8754 204.969C20.2167 205.216 20.5618 205.458 20.9106 205.695ZM14.3736 200.837L17.6857 197.091C16.6717 196.194 15.7062 195.244 14.7932 194.245L11.1018 197.617C12.1345 198.748 13.2266 199.822 14.3736 200.837ZM8.19064 194.069L12.2196 191.108C11.8193 190.563 11.4332 190.007 11.0615 189.441C10.6899 188.874 10.3339 188.299 9.9938 187.715L5.67303 190.231C6.05774 190.891 6.46041 191.543 6.88077 192.183C7.30112 192.824 7.73793 193.453 8.19064 194.069ZM3.57749 186.147L8.14118 184.104C7.58816 182.869 7.10131 181.605 6.68271 180.317L1.92779 181.863C2.40128 183.32 2.95196 184.749 3.57749 186.147ZM0.742598 177.429L5.6349 176.397C5.50342 175.774 5.38741 175.147 5.28711 174.516C5.21064 173.792 5.14981 173.076 5.10418 172.367L0.114503 172.688C0.167285 173.508 0.238509 174.336 0.328594 175.171C0.446685 175.928 0.584783 176.681 0.742598 177.429ZM0.0195312 167.71L5.01768 167.845C5.05924 166.318 5.17338 164.825 5.35566 163.367L0.394273 162.747C0.191739 164.367 0.0654555 166.021 0.0195312 167.71ZM1.2588 157.847L6.13239 158.964C6.46836 157.498 6.876 156.067 7.35115 154.669L2.61722 153.06C2.08765 154.618 1.63324 156.213 1.2588 157.847ZM4.45592 148.436L9.00315 150.515C9.62534 149.154 10.315 147.826 11.0683 146.529L6.74528 144.017C5.91226 145.451 5.14743 146.923 4.45592 148.436ZM9.44408 139.835L13.5172 142.735C14.3906 141.508 15.3239 140.313 16.3136 139.149L12.5045 135.91C11.4253 137.179 10.4035 138.487 9.44408 139.835ZM15.8786 132.251L19.4192 135.781C20.4957 134.702 21.6224 133.653 22.7956 132.636L19.5208 128.858C18.2595 129.951 17.0438 131.082 15.8786 132.251ZM23.3905 125.727L26.4065 129.715C27.6385 128.783 28.9106 127.882 30.2188 127.013L27.4524 122.848C26.0623 123.772 24.7068 124.731 23.3905 125.727ZM31.6764 120.213L34.2036 124.528C35.5519 123.738 36.9304 122.979 38.3353 122.252L36.0374 117.812C34.5574 118.577 33.1023 119.378 31.6764 120.213ZM40.5143 115.634L42.5921 120.181C43.3101 119.853 44.0333 119.533 44.7615 119.221C45.4694 118.917 46.1966 118.629 46.9424 118.356L45.2213 113.661C44.3964 113.964 43.5858 114.285 42.7906 114.626C42.0271 114.953 41.2682 115.289 40.5143 115.634ZM50.2085 112.087L51.5148 116.914C53.0564 116.496 54.6521 116.125 56.2971 115.791L55.3015 110.891C53.5683 111.243 51.8676 111.638 50.2085 112.087ZM60.4526 109.972L61.2268 114.912C62.8753 114.654 64.5546 114.421 66.2607 114.205L65.6324 109.245C63.8897 109.466 62.1604 109.705 60.4526 109.972ZM70.8285 108.635L71.3768 113.605C72.7958 113.448 74.2174 113.297 75.6503 113.145C75.9532 113.113 76.2565 113.08 76.5605 113.048L76.0315 108.076C75.7294 108.108 75.4273 108.14 75.1252 108.172C73.6921 108.325 72.2585 108.477 70.8285 108.635ZM81.2336 107.507L81.8029 112.474C83.5692 112.272 85.339 112.056 87.099 111.817L86.4266 106.863C84.7108 107.095 82.9771 107.307 81.2336 107.507ZM577.586 232.772L577.512 227.773C579.151 227.748 580.795 227.701 582.44 227.63L582.655 232.626C580.962 232.699 579.272 232.747 577.586 232.772ZM587.717 232.335L587.357 227.348C588.994 227.23 590.629 227.087 592.259 226.92L592.769 231.894C591.088 232.066 589.403 232.213 587.717 232.335ZM597.804 231.299L597.139 226.344C598.764 226.125 600.382 225.881 601.989 225.611L602.818 230.542C601.155 230.822 599.483 231.074 597.804 231.299ZM607.803 229.615L606.802 224.716C608.405 224.389 609.994 224.034 611.567 223.651L612.75 228.509C611.115 228.907 609.465 229.276 607.803 229.615ZM617.651 227.211L616.273 222.405C617.839 221.956 619.384 221.477 620.907 220.968L622.492 225.71C620.899 226.243 619.284 226.743 617.651 227.211ZM627.26 223.992L625.453 219.33C626.963 218.745 628.445 218.127 629.896 217.476L631.941 222.039C630.409 222.726 628.848 223.377 627.26 223.992ZM135.332 66.8784C135.828 66.1925 136.341 65.5163 136.872 64.8515C137.354 64.2326 137.848 63.625 138.352 63.0287L142.17 66.2573C141.708 66.8036 141.256 67.3598 140.814 67.9262L140.797 67.9491L140.778 67.9719C140.3 68.5705 139.836 69.1835 139.382 69.8104L135.332 66.8784ZM141.521 59.5646L145.078 63.0791C146.091 62.0539 147.142 61.0679 148.229 60.12L144.943 56.3513C143.765 57.3784 142.623 58.4492 141.521 59.5646ZM148.59 53.3939L151.602 57.3848C152.759 56.5111 153.95 55.6747 155.17 54.8748L152.43 50.6929C151.12 51.5516 149.838 52.4515 148.59 53.3939ZM156.436 48.2441L158.911 52.5883C160.182 51.864 161.48 51.1751 162.801 50.5209L160.582 46.0403C159.177 46.736 157.794 47.4702 156.436 48.2441ZM164.845 44.0727L166.818 48.6671C168.174 48.0846 169.55 47.5358 170.943 47.0199L169.205 42.3314C167.736 42.8757 166.282 43.4558 164.845 44.0727ZM173.646 40.8061L175.159 45.5719C176.578 45.1216 178.01 44.7033 179.45 44.3163L178.153 39.4875C176.642 39.8934 175.139 40.3325 173.646 40.8061ZM182.713 38.3665L183.804 43.246C185.268 42.9187 186.737 42.6221 188.208 42.3553L187.316 37.4356C185.78 37.7142 184.244 38.0241 182.713 38.3665ZM191.951 36.6883L192.651 41.6391C193.395 41.534 194.138 41.4362 194.88 41.3457C194.881 41.3455 194.882 41.3454 194.884 41.3452L195.764 41.2396L195.168 36.2752L194.278 36.382C193.504 36.4765 192.728 36.5785 191.951 36.6883ZM196.947 36.0617L197.543 41.0261L198.383 40.9252C199.12 40.8516 199.857 40.7823 200.594 40.7174L200.156 35.7367C199.382 35.8047 198.609 35.8775 197.837 35.955L196.947 36.0617ZM204.801 35.3842L205.119 40.3741C206.629 40.2779 208.14 40.2 209.651 40.1403L209.453 35.1442C207.902 35.2054 206.351 35.2854 204.801 35.3842ZM214.11 35.0167L214.187 40.0161C215.699 39.993 217.212 39.9882 218.724 40.0016L218.769 35.0018C217.216 34.988 215.663 34.993 214.11 35.0167ZM223.426 35.0995L223.261 40.0968C224.773 40.1468 226.284 40.2151 227.794 40.3017L228.08 35.3098C226.53 35.221 224.978 35.1509 223.426 35.0995ZM232.727 35.6326L232.321 40.616C233.828 40.739 235.334 40.8803 236.839 41.0397L237.366 36.0676C235.821 35.9039 234.275 35.7589 232.727 35.6326ZM241.992 36.6146L241.345 41.5725C242.844 41.7682 244.342 41.9821 245.837 42.2141L246.604 37.2732C245.069 37.035 243.531 36.8155 241.992 36.6146ZM251.198 38.0432L250.312 42.9641C251.056 43.098 251.8 43.2366 252.543 43.3796L252.555 43.382L252.568 43.3844C253.25 43.5121 253.928 43.6583 254.601 43.8225L255.787 38.9651C255.026 38.7794 254.26 38.6142 253.488 38.4698C252.726 38.3229 251.962 38.1807 251.198 38.0432ZM260.286 40.3258C261.76 40.8605 263.204 41.4749 264.611 42.1661L262.407 46.654C261.162 46.0425 259.885 45.4991 258.581 45.0261L260.286 40.3258ZM268.712 44.4644L266.034 48.687C266.571 49.0275 267.1 49.3818 267.621 49.7495C268.277 50.2895 268.934 50.813 269.592 51.3202L272.646 47.3615C271.986 46.8521 271.325 46.3241 270.663 45.7769C270.024 45.3213 269.373 44.8836 268.712 44.4644ZM276.752 50.2979L274.001 54.473C275.561 55.5009 277.125 56.4392 278.691 57.2891L281.076 52.8942C279.639 52.115 278.198 51.2505 276.752 50.2979ZM285.628 55.0891L283.684 59.6956C285.436 60.4352 287.19 61.0659 288.945 61.5901L290.376 56.7993C288.8 56.3285 287.217 55.7598 285.628 55.0891ZM295.287 57.958L294.431 62.8843C296.315 63.2112 298.192 63.4172 300.061 63.5072L300.302 58.513C298.638 58.4329 296.966 58.2496 295.287 57.958ZM305.347 58.4427L305.725 63.4284C307.603 63.2863 309.466 63.0305 311.31 62.6688L310.348 57.7623C308.691 58.0872 307.024 58.3158 305.347 58.4427ZM315.241 56.519L316.729 61.2924C318.481 60.7462 320.213 60.1082 321.924 59.386L319.981 54.7793C318.411 55.4418 316.83 56.0233 315.241 56.519ZM324.545 52.6148L326.873 57.0396C328.456 56.2068 330.021 55.3044 331.567 54.3383L328.919 50.0975C327.47 51.0021 326.012 51.8426 324.545 52.6148ZM333.11 47.2849L336.024 51.3477C337.452 50.3233 338.865 49.2461 340.264 48.1205L337.128 44.2256C335.798 45.2966 334.458 46.3175 333.11 47.2849ZM340.987 40.9593L344.307 44.6981C345.604 43.5463 346.889 42.354 348.161 41.1247L344.686 37.5291C343.462 38.7122 342.229 39.8566 340.987 40.9593ZM348.252 33.9502L351.858 37.4143C352.458 36.7895 353.055 36.1568 353.65 35.5164C354.201 34.9248 354.758 34.3407 355.323 33.7641L351.749 30.2666C351.155 30.8737 350.568 31.4887 349.989 32.1116C349.412 32.7326 348.833 33.3455 348.252 33.9502ZM355.408 26.7136L358.799 30.3874C359.988 29.2903 361.203 28.2246 362.443 27.1911L359.241 23.3503C357.937 24.4378 356.658 25.5592 355.408 26.7136ZM363.24 20.1852L366.243 24.1832C367.536 23.2125 368.852 22.275 370.191 21.3715L367.394 17.2267C365.985 18.1774 364.6 19.1639 363.24 20.1852ZM371.693 14.4823L374.276 18.7633C375.659 17.9288 377.063 17.1291 378.488 16.3652L376.125 11.9589C374.626 12.7627 373.148 13.6041 371.693 14.4823ZM380.679 9.66304L382.816 14.1833C384.275 13.4934 385.753 12.8398 387.248 12.2234L385.343 7.60073C383.769 8.2493 382.214 8.93703 380.679 9.66304ZM390.106 5.77716L391.775 10.4904C392.536 10.2209 393.301 9.9608 394.069 9.71027C394.838 9.45975 395.609 9.21917 396.383 8.98855L394.955 4.19691C394.141 4.43958 393.329 4.69273 392.52 4.95633C391.711 5.21995 390.906 5.49359 390.106 5.77716ZM399.877 2.86427L401.061 7.72206C402.632 7.33909 404.212 6.99638 405.797 6.69403L404.861 1.78252C403.192 2.10067 401.531 2.46129 399.877 2.86427ZM409.893 0.954431L410.58 5.90705C412.181 5.68506 413.786 5.50374 415.396 5.36316L414.96 0.382135C413.267 0.530051 411.577 0.72085 409.893 0.954431ZM420.05 0.0670787C421.749 0.00505692 423.449 -0.0139797 425.15 0.0100705L425.079 5.00957C423.463 4.98671 421.847 5.00481 420.233 5.06375L420.05 0.0670787ZM430.246 0.211273L429.922 5.20078C431.533 5.30529 433.142 5.45063 434.749 5.6369L435.325 0.670179C433.634 0.474173 431.941 0.321238 430.246 0.211273ZM440.374 1.38561L439.547 6.31682C440.343 6.45027 441.139 6.5939 441.932 6.74771L441.994 6.75966L442.056 6.77005C442.917 6.91452 443.776 7.06895 444.633 7.23331L445.574 2.32282C444.68 2.15117 443.783 1.98989 442.883 1.83901C442.048 1.67717 441.212 1.52604 440.374 1.38561ZM450.919 3.47738L449.75 8.33879C451.447 8.74689 453.134 9.19437 454.811 9.68087L456.204 4.87903C454.454 4.37093 452.691 3.90359 450.919 3.47738ZM461.419 6.52472L459.803 11.2566C460.629 11.5385 461.452 11.83 462.271 12.1311L462.307 12.1444L462.344 12.1572C463.138 12.4354 463.928 12.7248 464.714 13.0255L466.501 8.35601C465.671 8.03812 464.836 7.73208 463.996 7.43801C463.14 7.12353 462.281 6.81909 461.419 6.52472ZM471.428 10.4074L469.373 14.9657C470.907 15.6575 472.421 16.3933 473.912 17.1721L476.227 12.7404C474.651 11.9169 473.05 11.1389 471.428 10.4074ZM480.883 15.347L478.316 19.6374C479.759 20.5011 481.178 21.4067 482.57 22.3533L485.381 18.2185C483.909 17.2177 482.409 16.2602 480.883 15.347ZM489.705 21.3454L486.66 25.3106C487.32 25.8177 487.973 26.3344 488.619 26.8608C489.507 27.5992 490.374 28.3604 491.221 29.1434L494.616 25.4722C493.699 24.6244 492.759 23.8005 491.798 23.0013C491.108 22.4389 490.41 21.8869 489.705 21.3454ZM499.842 30.8414L496.08 34.1354C496.845 35.0089 497.587 35.9028 498.306 36.8163L498.309 36.8204C498.839 37.4924 499.347 38.1591 499.836 38.8205L503.857 35.8493C503.338 35.1464 502.798 34.4383 502.235 33.7248C501.463 32.7424 500.664 31.7809 499.842 30.8414ZM506.892 40.2402L502.692 42.9526C503.634 44.4119 504.495 45.8484 505.295 47.2635L509.648 44.8045C508.805 43.3116 507.893 41.79 506.892 40.2402ZM512.156 49.5219L507.688 51.7668C508.483 53.3483 509.223 54.9034 509.946 56.4473L514.475 54.3285C513.743 52.7659 512.981 51.1633 512.156 49.5219ZM516.729 59.1636L512.209 61.3003C513.001 62.9759 513.817 64.6489 514.69 66.2897L519.104 63.9402C518.284 62.3997 517.506 60.807 516.729 59.1636ZM521.819 68.5322L517.655 71.3013C518.743 72.9366 519.948 74.5346 521.321 76.081L525.06 72.762C523.86 71.4094 522.794 69.999 521.819 68.5322ZM528.896 76.4678L525.707 80.3185C527.19 81.5471 528.812 82.7129 530.599 83.8163L533.226 79.5624C531.63 78.5761 530.196 77.5442 528.896 76.4678ZM537.918 82.096L535.78 86.6161C537.434 87.398 539.2 88.1399 541.09 88.8432L542.834 84.157C541.066 83.4995 539.433 82.8123 537.918 82.096ZM547.901 85.8478L546.467 90.6377C547.347 90.9013 548.252 91.1587 549.181 91.4099L549.193 91.4131C550.043 91.6408 550.902 91.8633 551.768 92.0811L552.987 87.2321C552.144 87.0201 551.31 86.804 550.486 86.5832C549.598 86.3433 548.737 86.0981 547.901 85.8478ZM558.021 88.4303L556.918 93.3073C558.61 93.6896 560.326 94.0595 562.059 94.4202L563.078 89.5251C561.367 89.1691 559.68 88.8053 558.021 88.4303ZM568.149 90.5481C569.826 90.8775 571.521 91.2028 573.23 91.5271L572.298 96.4395C570.583 96.1139 568.876 95.7865 567.185 95.4545L568.149 90.5481ZM578.315 92.485L577.393 97.3992C579.079 97.7157 580.77 98.0332 582.467 98.3553L583.399 93.443C581.697 93.1198 580.001 92.8014 578.315 92.485ZM588.48 94.4209L587.519 99.3278C589.196 99.656 590.872 99.9909 592.546 100.335L593.554 95.4377C591.861 95.0896 590.169 94.7516 588.48 94.4209ZM598.615 96.5116L597.543 101.395C599.204 101.76 600.859 102.136 602.505 102.527L603.659 97.6616C601.983 97.2638 600.3 96.8814 598.615 96.5116ZM608.682 98.907L607.426 103.747C609.062 104.171 610.687 104.613 612.295 105.074L613.673 100.268C612.021 99.7942 610.356 99.3414 608.682 98.907ZM618.625 101.766L617.103 106.529C617.901 106.784 618.693 107.044 619.48 107.31L619.486 107.312C620.192 107.55 620.893 107.792 621.59 108.04L623.265 103.329C622.541 103.072 621.814 102.82 621.082 102.574C620.267 102.298 619.448 102.029 618.625 101.766ZM627.587 104.955L625.738 109.6C627.116 110.149 628.469 110.719 629.797 111.314L631.842 106.751C630.446 106.126 629.026 105.528 627.587 104.955ZM636.009 108.739L633.746 113.197C635.051 113.86 636.324 114.549 637.565 115.267L640.07 110.939C638.745 110.173 637.391 109.44 636.009 108.739ZM643.994 113.372L641.228 117.537C642.425 118.332 643.586 119.159 644.706 120.02L647.752 116.054C646.536 115.121 645.283 114.227 643.994 113.372ZM651.306 119.001L647.97 122.726C649.02 123.666 650.027 124.642 650.99 125.658L654.618 122.218C653.559 121.1 652.454 120.029 651.306 119.001ZM657.648 125.701L653.737 128.816C654.599 129.898 655.418 131.023 656.189 132.192L660.362 129.437C659.507 128.142 658.601 126.898 657.648 125.701ZM662.73 133.398L658.329 135.77C658.657 136.379 658.974 136.999 659.279 137.632L659.284 137.64L659.288 137.648C659.538 138.162 659.781 138.68 660.014 139.202L664.578 137.16C664.322 136.588 664.056 136.02 663.781 135.456C663.444 134.757 663.093 134.072 662.73 133.398ZM666 140.642L661.312 142.379C661.709 143.451 662.071 144.537 662.397 145.634L667.19 144.21C666.833 143.008 666.436 141.818 666 140.642ZM668.141 147.849L663.264 148.953C663.39 149.511 663.507 150.071 663.615 150.633L663.618 150.646L663.621 150.66C663.781 151.47 663.929 152.272 664.064 153.066L668.993 152.222C668.85 151.386 668.694 150.542 668.526 149.691C668.407 149.075 668.279 148.461 668.141 147.849ZM669.713 157.231L664.746 157.805C664.933 159.423 665.067 161.003 665.152 162.546L670.144 162.273C670.054 160.627 669.911 158.946 669.713 157.231ZM670.254 167.335L665.254 167.273C665.235 168.88 665.158 170.444 665.026 171.966L670.008 172.396C670.15 170.748 670.233 169.062 670.254 167.335ZM669.372 177.426L664.441 176.597C664.179 178.155 663.857 179.667 663.478 181.133L668.319 182.385C668.734 180.777 669.087 179.124 669.372 177.426ZM666.828 187.23L662.122 185.541C661.597 187.002 661.011 188.416 660.368 189.785L664.892 191.913C665.603 190.401 666.25 188.84 666.828 187.23ZM662.52 196.388L658.22 193.837C657.436 195.159 656.592 196.436 655.692 197.671L659.732 200.617C660.723 199.257 661.654 197.848 662.52 196.388ZM656.56 204.57L652.806 201.267C651.79 202.422 650.719 203.536 649.596 204.61L653.05 208.224C654.275 207.054 655.446 205.836 656.56 204.57ZM649.248 211.573L646.095 207.692C644.891 208.67 643.639 209.61 642.341 210.513L645.197 214.617C646.592 213.646 647.944 212.632 649.248 211.573ZM640.939 217.368L638.368 213.079C637.021 213.887 635.633 214.659 634.21 215.397L636.509 219.836C638.021 219.053 639.499 218.23 640.939 217.368ZM132.51 71.1146L136.763 73.7436C135.92 75.1071 135.107 76.5105 134.297 77.9538L129.937 75.5073C130.767 74.0268 131.618 72.558 132.51 71.1146ZM127.483 79.968L131.871 82.3639C131.057 83.8555 130.22 85.3811 129.353 86.8991L125.012 84.4193C125.853 82.947 126.669 81.4586 127.483 79.968ZM122.388 88.7818C121.931 89.4963 121.462 90.2034 120.978 90.9011C120.477 91.6293 119.949 92.3237 119.396 92.986L123.234 96.1912C123.885 95.4119 124.505 94.5958 125.093 93.7412C125.613 92.9906 126.114 92.2348 126.599 91.4768L122.388 88.7818ZM115.689 96.6681L118.876 100.521C117.311 101.816 115.651 102.957 113.919 103.968L111.399 99.6491C112.916 98.7642 114.35 97.7759 115.689 96.6681ZM106.715 101.968L108.646 106.58C106.89 107.315 105.086 107.953 103.25 108.514L101.791 103.731C103.488 103.213 105.133 102.63 106.715 101.968ZM96.7317 105.063C95.0547 105.442 93.3409 105.775 91.599 106.075L92.4452 111.002C94.258 110.691 96.0589 110.341 97.8347 109.939L96.7317 105.063Z" fill="white"/>
</svg>
