<svg width="72" height="80" viewBox="0 0 72 80" fill="none" xmlns="http://www.w3.org/2000/svg">
<path d="M59.2361 9.71445C58.9033 9.68862 58.5786 9.59918 58.2796 9.451C51.4199 5.84096 43.7707 3.98541 36.0167 4.05042C28.2589 4.00072 20.6135 5.90341 13.7867 9.58275C13.555 9.71033 13.3004 9.79105 13.0374 9.82038C12.7744 9.8497 12.5082 9.82704 12.254 9.75365C11.9998 9.68026 11.7625 9.5576 11.5558 9.39267C11.3491 9.22774 11.1769 9.02377 11.0492 8.79241C10.9214 8.56105 10.8405 8.30684 10.8112 8.04427C10.7818 7.7817 10.8045 7.51591 10.878 7.26211C10.9515 7.00831 11.0744 6.77147 11.2396 6.56507C11.4047 6.35867 11.609 6.18675 11.8408 6.05918C19.2826 2.09789 27.5833 0.01752 36.0167 0C44.4355 0.00589216 52.7286 2.03923 60.1925 5.92748C60.6604 6.18519 61.0086 6.61547 61.1627 7.12629C61.3168 7.63711 61.2645 8.18788 61.0171 8.66071C60.8633 8.99676 60.6103 9.27782 60.2919 9.46618C59.9736 9.65454 59.6051 9.74115 59.2361 9.71445ZM1.94612 30.5594C1.54635 30.5697 1.1575 30.4285 0.857703 30.1642C0.436748 29.8706 0.144187 29.4274 0.0399437 28.9253C-0.0643 28.4233 0.0276698 27.9005 0.297013 27.4639C4.17098 22.0252 9.30939 17.6068 15.2709 14.5882C21.7027 11.4196 28.7786 9.77149 35.9507 9.77149C43.1228 9.77149 50.1987 11.4196 56.6305 14.5882C62.6154 17.5718 67.7617 21.9969 71.6044 27.4639C71.8232 27.8984 71.8739 28.3982 71.7466 28.8676C71.6194 29.337 71.3232 29.7431 70.9148 30.0082C70.5065 30.2732 70.0146 30.3786 69.5333 30.3041C69.0519 30.2296 68.615 29.9805 68.3062 29.6044C64.8106 24.6534 60.1271 20.6567 54.6845 17.98C48.8304 15.1035 42.3929 13.6076 35.8682 13.6076C29.3435 13.6076 22.9061 15.1035 17.0519 17.98C11.6463 20.6989 6.98306 24.688 3.46327 29.6044C3.32963 29.8928 3.11532 30.1364 2.84611 30.3058C2.57691 30.4753 2.26433 30.5633 1.94612 30.5594ZM26.9466 78.1768C26.6954 78.203 26.4416 78.1688 26.2064 78.0772C25.9711 77.9855 25.7613 77.839 25.5943 77.6499C22.3524 74.6218 19.6136 71.0982 17.4807 67.2109C14.6214 61.9474 13.1569 56.0416 13.226 50.0542C13.4581 44.2192 15.9772 38.709 20.2404 34.7112C24.5036 30.7134 30.1695 28.5482 36.0167 28.6824C41.8305 28.5222 47.4726 30.6603 51.7158 34.6317C55.9591 38.6031 58.4602 44.0865 58.6754 49.8895C58.6118 50.3905 58.3673 50.8512 57.9878 51.1852C57.6083 51.5191 57.1198 51.7033 56.614 51.7033C56.1082 51.7033 55.6197 51.5191 55.2402 51.1852C54.8607 50.8512 54.6162 50.3905 54.5526 49.8895C54.472 47.5452 53.9276 45.24 52.9508 43.1067C51.974 40.9733 50.584 39.054 48.8611 37.4593C47.1382 35.8645 45.1163 34.6259 42.9118 33.8147C40.7074 33.0036 38.364 32.6359 36.0167 32.7328C33.6514 32.6447 31.2919 33.023 29.0732 33.8461C26.8545 34.6692 24.8201 35.9209 23.0863 37.5297C21.3525 39.1384 19.9533 41.0726 18.9688 43.2217C17.9843 45.3708 17.4338 47.6925 17.3488 50.0542C17.2215 55.3403 18.4959 60.5661 21.0428 65.2022C22.9543 68.7934 25.4637 72.0339 28.4637 74.7849C28.6583 74.9695 28.8133 75.1917 28.9192 75.4379C29.0251 75.6842 29.0797 75.9494 29.0797 76.2174C29.0797 76.4854 29.0251 76.7506 28.9192 76.9968C28.8133 77.2431 28.6583 77.4653 28.4637 77.6499C28.0153 77.9599 27.4909 78.142 26.9466 78.1768ZM55.8059 70.8662C51.4279 70.9881 47.1157 69.7825 43.4376 67.4085C40.5544 65.5296 38.1812 62.9678 36.5297 59.9514C34.8781 56.935 33.9994 53.5576 33.9717 50.1201C33.9673 49.8507 34.0172 49.5832 34.1183 49.3335C34.2195 49.0838 34.37 48.8569 34.5608 48.6664C34.7515 48.476 34.9787 48.3257 35.2289 48.2247C35.479 48.1237 35.7469 48.0739 36.0167 48.0784C36.2916 48.0593 36.5675 48.0988 36.826 48.1942C37.0845 48.2896 37.3198 48.4388 37.5163 48.6318C37.7127 48.8248 37.8659 49.0574 37.9656 49.3139C38.0653 49.5705 38.1092 49.8452 38.0945 50.1201C38.1273 52.9272 38.8589 55.6822 40.2235 58.1368C41.588 60.5914 43.5426 62.6686 45.9113 64.1813C48.9385 66.1164 52.4764 67.1027 56.0698 67.0134C57.4521 66.9869 58.8304 66.8548 60.1925 66.6182C60.713 66.5265 61.2487 66.645 61.6816 66.9476C62.1146 67.2502 62.4095 67.7121 62.5013 68.2318C62.5932 68.7514 62.4745 69.2862 62.1714 69.7185C61.8683 70.1508 61.4056 70.4452 60.8852 70.5369C58.2796 70.8003 56.3337 70.9321 55.8059 70.9321V70.8662ZM47.6923 79C47.5103 79.0603 47.3137 79.0603 47.1316 79C41.499 77.6079 36.3339 74.7568 32.1577 70.7345C29.42 68.056 27.2455 64.8588 25.7616 61.3303C24.2777 57.8017 23.5144 54.0129 23.5164 50.1859C23.7447 47.0666 25.1469 44.1491 27.4413 42.0196C29.7356 39.8901 32.7521 38.7065 35.8847 38.7065C39.0173 38.7065 42.0338 39.8901 44.3281 42.0196C46.6225 44.1491 48.0247 47.0666 48.253 50.1859C48.439 52.2762 49.4021 54.2211 50.9526 55.6378C52.5031 57.0545 54.5287 57.8402 56.6305 57.8402C58.7323 57.8402 60.7578 57.0545 62.3084 55.6378C63.8589 54.2211 64.822 52.2762 65.0079 50.1859C65.0079 35.3014 51.8151 23.2488 36.0167 23.2488C30.5641 23.1879 25.2033 24.6515 20.5404 27.4739C15.8775 30.2964 12.0986 34.3651 9.63096 39.2201C8.03197 42.6989 7.23187 46.4904 7.28921 50.3176C7.27516 55.1839 8.21639 60.0058 10.0597 64.5106C10.1557 64.7527 10.2029 65.0114 10.1985 65.2717C10.1941 65.5321 10.1381 65.789 10.0339 66.0277C9.92972 66.2664 9.77928 66.4822 9.59125 66.6626C9.40323 66.8431 9.18132 66.9846 8.93831 67.0792C8.44737 67.2673 7.90271 67.2593 7.41749 67.057C6.93227 66.8546 6.5438 66.4734 6.33275 65.9925C4.44718 61.0261 3.47507 55.7606 3.46327 50.4494C3.39971 46.06 4.33578 41.7136 6.20079 37.7382C9.03148 32.2225 13.3452 27.6032 18.6582 24.3983C23.9712 21.1934 30.0734 19.5296 36.2805 19.5936C54.5526 19.5936 69.2626 33.3914 69.2626 50.4494C69.0343 53.5687 67.6321 56.4862 65.3378 58.6156C63.0434 60.7451 60.0269 61.9287 56.8943 61.9287C53.7617 61.9287 50.7452 60.7451 48.4509 58.6156C46.1565 56.4862 44.7543 53.5687 44.526 50.4494C44.4836 49.3939 44.2331 48.3571 43.789 47.3984C43.3448 46.4397 42.7157 45.5778 41.9376 44.8621C41.1595 44.1464 40.2477 43.5909 39.2543 43.2274C38.261 42.8639 37.2056 42.6995 36.1486 42.7436C35.0894 42.6906 34.0303 42.8488 33.0331 43.2091C32.0359 43.5693 31.1207 44.1243 30.3407 44.8417C29.5608 45.5591 28.9318 46.4245 28.4907 47.3873C28.0495 48.3501 27.8049 49.3911 27.7711 50.4494C27.7466 53.7811 28.4039 57.0827 29.7026 60.1518C31.0014 63.2209 32.9143 65.9928 35.324 68.2976C38.9521 71.916 43.5221 74.4484 48.5169 75.6082C48.7704 75.6722 49.0081 75.7873 49.2153 75.9466C49.4224 76.1059 49.5947 76.3059 49.7214 76.5343C49.8482 76.7626 49.9267 77.0145 49.9521 77.2744C49.9775 77.5342 49.9493 77.7965 49.8692 78.045C49.2877 78.6225 48.5116 78.963 47.6923 79Z" fill="white"/>
</svg>
