<svg width="72" height="80" viewBox="0 0 72 80" fill="none" xmlns="http://www.w3.org/2000/svg">
<path d="M59.238 9.71445C58.9052 9.68862 58.5805 9.59918 58.2816 9.451C51.4218 5.84096 43.7726 3.98541 36.0186 4.05042C28.2608 4.00072 20.6155 5.90341 13.7886 9.58275C13.5569 9.71033 13.3023 9.79105 13.0393 9.82038C12.7763 9.8497 12.5101 9.82704 12.2559 9.75365C12.0017 9.68026 11.7645 9.5576 11.5578 9.39267C11.351 9.22774 11.1789 9.02377 11.0511 8.79241C10.9233 8.56105 10.8425 8.30684 10.8131 8.04427C10.7838 7.7817 10.8065 7.51591 10.88 7.26211C10.9535 7.00831 11.0763 6.77147 11.2415 6.56507C11.4067 6.35867 11.611 6.18675 11.8427 6.05918C19.2846 2.09789 27.5852 0.01752 36.0186 0C44.4374 0.00589216 52.7305 2.03923 60.1945 5.92748C60.6623 6.18519 61.0106 6.61547 61.1647 7.12629C61.3188 7.63711 61.2665 8.18788 61.019 8.66071C60.8652 8.99676 60.6122 9.27782 60.2939 9.46618C59.9755 9.65454 59.6071 9.74115 59.238 9.71445ZM1.94807 30.5594C1.5483 30.5697 1.15945 30.4285 0.859656 30.1642C0.438701 29.8706 0.14614 29.4274 0.0418968 28.9253C-0.0623469 28.4233 0.0296229 27.9005 0.298966 27.4639C4.17294 22.0252 9.31134 17.6068 15.2728 14.5882C21.7046 11.4196 28.7805 9.77149 35.9526 9.77149C43.1248 9.77149 50.2007 11.4196 56.6325 14.5882C62.6174 17.5718 67.7636 21.9969 71.6064 27.4639C71.8252 27.8984 71.8758 28.3982 71.7486 28.8676C71.6214 29.337 71.3252 29.7431 70.9168 30.0082C70.5084 30.2732 70.0165 30.3786 69.5352 30.3041C69.0539 30.2296 68.617 29.9805 68.3082 29.6044C64.8125 24.6534 60.1291 20.6567 54.6865 17.98C48.8323 15.1035 42.3948 13.6076 35.8702 13.6076C29.3455 13.6076 22.908 15.1035 17.0539 17.98C11.6483 20.6989 6.98502 24.688 3.46522 29.6044C3.33159 29.8928 3.11727 30.1364 2.84807 30.3058C2.57886 30.4753 2.26629 30.5633 1.94807 30.5594ZM26.9485 78.1768C26.6974 78.203 26.4436 78.1688 26.2083 78.0772C25.9731 77.9855 25.7632 77.839 25.5963 77.6499C22.3544 74.6218 19.6156 71.0982 17.4826 67.2109C14.6234 61.9474 13.1588 56.0416 13.228 50.0542C13.46 44.2192 15.9791 38.709 20.2423 34.7112C24.5056 30.7134 30.1714 28.5482 36.0186 28.6824C41.8325 28.5222 47.4746 30.6603 51.7178 34.6317C55.961 38.6031 58.4622 44.0865 58.6773 49.8895C58.6137 50.3905 58.3693 50.8512 57.9898 51.1852C57.6103 51.5191 57.1218 51.7033 56.6159 51.7033C56.1101 51.7033 55.6216 51.5191 55.2421 51.1852C54.8626 50.8512 54.6182 50.3905 54.5546 49.8895C54.4739 47.5452 53.9295 45.24 52.9527 43.1067C51.9759 40.9733 50.586 39.054 48.8631 37.4593C47.1401 35.8645 45.1182 34.6259 42.9138 33.8147C40.7094 33.0036 38.366 32.6359 36.0186 32.7328C33.6534 32.6447 31.2939 33.023 29.0752 33.8461C26.8565 34.6692 24.822 35.9209 23.0882 37.5297C21.3544 39.1384 19.9553 41.0726 18.9708 43.2217C17.9863 45.3708 17.4358 47.6925 17.3507 50.0542C17.2235 55.3403 18.4978 60.5661 21.0447 65.2022C22.9562 68.7934 25.4657 72.0339 28.4657 74.7849C28.6603 74.9695 28.8153 75.1917 28.9211 75.4379C29.027 75.6842 29.0816 75.9494 29.0816 76.2174C29.0816 76.4854 29.027 76.7506 28.9211 76.9968C28.8153 77.2431 28.6603 77.4653 28.4657 77.6499C28.0173 77.9599 27.4928 78.142 26.9485 78.1768ZM55.8079 70.8662C51.4299 70.9881 47.1177 69.7825 43.4396 67.4085C40.5563 65.5296 38.1832 62.9678 36.5316 59.9514C34.8801 56.935 34.0013 53.5576 33.9737 50.1201C33.9692 49.8507 34.0191 49.5832 34.1203 49.3335C34.2215 49.0838 34.3719 48.8569 34.5627 48.6664C34.7535 48.476 34.9807 48.3257 35.2308 48.2247C35.4809 48.1237 35.7488 48.0739 36.0186 48.0784C36.2936 48.0593 36.5694 48.0988 36.828 48.1942C37.0865 48.2896 37.3218 48.4388 37.5182 48.6318C37.7147 48.8248 37.8678 49.0574 37.9675 49.3139C38.0672 49.5705 38.1111 49.8452 38.0965 50.1201C38.1293 52.9272 38.8609 55.6822 40.2254 58.1368C41.59 60.5914 43.5446 62.6686 45.9133 64.1813C48.9405 66.1164 52.4783 67.1027 56.0717 67.0134C57.4541 66.9869 58.8323 66.8548 60.1945 66.6182C60.7149 66.5265 61.2506 66.645 61.6836 66.9476C62.1166 67.2502 62.4114 67.7121 62.5033 68.2318C62.5951 68.7514 62.4764 69.2862 62.1733 69.7185C61.8702 70.1508 61.4076 70.4452 60.8871 70.5369C58.2815 70.8003 56.3356 70.9321 55.8079 70.9321V70.8662ZM47.6943 79C47.5122 79.0603 47.3156 79.0603 47.1336 79C41.501 77.6079 36.3358 74.7568 32.1597 70.7345C29.4219 68.056 27.2474 64.8588 25.7635 61.3303C24.2797 57.8017 23.5164 54.0129 23.5184 50.1859C23.7467 47.0666 25.1489 44.1491 27.4432 42.0196C29.7376 39.8901 32.7541 38.7065 35.8867 38.7065C39.0192 38.7065 42.0357 39.8901 44.3301 42.0196C46.6244 44.1491 48.0266 47.0666 48.255 50.1859C48.4409 52.2762 49.404 54.2211 50.9545 55.6378C52.5051 57.0545 54.5307 57.8402 56.6325 57.8402C58.7342 57.8402 60.7598 57.0545 62.3103 55.6378C63.8608 54.2211 64.8239 52.2762 65.0099 50.1859C65.0099 35.3014 51.8171 23.2488 36.0186 23.2488C30.5661 23.1879 25.2052 24.6515 20.5423 27.4739C15.8794 30.2964 12.1005 34.3651 9.63291 39.2201C8.03393 42.6989 7.23383 46.4904 7.29116 50.3176C7.27711 55.1839 8.21834 60.0058 10.0616 64.5106C10.1577 64.7527 10.2049 65.0114 10.2004 65.2717C10.196 65.5321 10.1401 65.789 10.0359 66.0277C9.93167 66.2664 9.78123 66.4822 9.59321 66.6626C9.40519 66.8431 9.18327 66.9846 8.94027 67.0792C8.44932 67.2673 7.90467 67.2593 7.41944 67.057C6.93422 66.8546 6.54576 66.4734 6.3347 65.9925C4.44913 61.0261 3.47702 55.7606 3.46522 50.4494C3.40167 46.06 4.33774 41.7136 6.20274 37.7382C9.03343 32.2225 13.3472 27.6032 18.6602 24.3983C23.9732 21.1934 30.0754 19.5296 36.2824 19.5936C54.5545 19.5936 69.2646 33.3914 69.2646 50.4494C69.0362 53.5687 67.6341 56.4862 65.3397 58.6156C63.0454 60.7451 60.0288 61.9287 56.8963 61.9287C53.7637 61.9287 50.7472 60.7451 48.4528 58.6156C46.1585 56.4862 44.7563 53.5687 44.528 50.4494C44.4855 49.3939 44.2351 48.3571 43.7909 47.3984C43.3468 46.4397 42.7177 45.5778 41.9396 44.8621C41.1615 44.1464 40.2496 43.5909 39.2563 43.2274C38.2629 42.8639 37.2076 42.6995 36.1505 42.7436C35.0914 42.6906 34.0323 42.8488 33.0351 43.2091C32.0379 43.5693 31.1226 44.1243 30.3427 44.8417C29.5627 45.5591 28.9338 46.4245 28.4926 47.3873C28.0514 48.3501 27.8068 49.3911 27.7731 50.4494C27.7486 53.7811 28.4058 57.0827 29.7046 60.1518C31.0033 63.2209 32.9162 65.9928 35.326 68.2976C38.9541 71.916 43.5241 74.4484 48.5188 75.6082C48.7723 75.6722 49.01 75.7873 49.2172 75.9466C49.4244 76.1059 49.5967 76.3059 49.7234 76.5343C49.8501 76.7626 49.9286 77.0145 49.954 77.2744C49.9794 77.5342 49.9512 77.7965 49.8711 78.045C49.2897 78.6225 48.5136 78.963 47.6943 79Z" fill="#B5E0FF"/>
</svg>
